<svg width="174" height="41" viewBox="0 0 174 41" fill="none" xmlns="http://www.w3.org/2000/svg">
<path d="M61.264 34.432C59.344 34.432 57.556 34.084 55.9 33.388C54.244 32.692 52.792 31.72 51.544 30.472C50.296 29.224 49.324 27.76 48.628 26.08C47.932 24.4 47.584 22.564 47.584 20.572C47.584 18.58 47.92 16.744 48.592 15.064C49.264 13.36 50.212 11.896 51.436 10.672C52.66 9.42405 54.088 8.46405 55.72 7.79205C57.376 7.09605 59.176 6.74805 61.12 6.74805C63.064 6.74805 64.804 7.07205 66.34 7.72005C67.9 8.36805 69.22 9.23205 70.3 10.312C71.38 11.392 72.148 12.592 72.604 13.912L67.672 16.288C67.216 14.992 66.412 13.924 65.26 13.084C64.132 12.22 62.752 11.788 61.12 11.788C59.536 11.788 58.144 12.16 56.944 12.904C55.744 13.648 54.808 14.68 54.136 16C53.488 17.296 53.164 18.82 53.164 20.572C53.164 22.324 53.512 23.86 54.208 25.18C54.904 26.5 55.852 27.532 57.052 28.276C58.276 29.02 59.68 29.392 61.264 29.392C62.488 29.392 63.628 29.164 64.684 28.708C65.764 28.228 66.628 27.544 67.276 26.656C67.948 25.768 68.284 24.7 68.284 23.452V21.22L70.84 23.38H61.12V18.7H73.864V21.544C73.864 23.728 73.504 25.636 72.784 27.268C72.064 28.876 71.092 30.22 69.868 31.3C68.668 32.356 67.312 33.148 65.8 33.676C64.312 34.18 62.8 34.432 61.264 34.432Z" fill="white"/>
<path d="M76.9136 34V14.344H81.9536V19.06L81.5936 18.376C82.0256 16.72 82.7336 15.604 83.7176 15.028C84.7256 14.428 85.9136 14.128 87.2816 14.128H88.4336V18.808H86.7416C85.4216 18.808 84.3536 19.216 83.5376 20.032C82.7216 20.824 82.3136 21.952 82.3136 23.416V34H76.9136Z" fill="white"/>
<path d="M91.1963 34V7.18005H109.556V12.04H96.7763V18.844H107.756V23.704H96.7763V34H91.1963Z" fill="white"/>
<path d="M121.334 34.432C119.39 34.432 117.614 33.988 116.006 33.1C114.422 32.212 113.15 31 112.19 29.464C111.254 27.904 110.786 26.14 110.786 24.172C110.786 22.18 111.254 20.416 112.19 18.88C113.15 17.344 114.422 16.132 116.006 15.244C117.614 14.356 119.39 13.912 121.334 13.912C123.278 13.912 125.042 14.356 126.626 15.244C128.21 16.132 129.47 17.344 130.406 18.88C131.366 20.416 131.846 22.18 131.846 24.172C131.846 26.14 131.366 27.904 130.406 29.464C129.47 31 128.21 32.212 126.626 33.1C125.042 33.988 123.278 34.432 121.334 34.432ZM121.334 29.572C122.318 29.572 123.17 29.344 123.89 28.888C124.634 28.432 125.21 27.796 125.618 26.98C126.05 26.164 126.266 25.228 126.266 24.172C126.266 23.116 126.05 22.192 125.618 21.4C125.21 20.584 124.634 19.948 123.89 19.492C123.17 19.012 122.318 18.772 121.334 18.772C120.35 18.772 119.486 19.012 118.742 19.492C117.998 19.948 117.41 20.584 116.978 21.4C116.57 22.192 116.366 23.116 116.366 24.172C116.366 25.228 116.57 26.164 116.978 26.98C117.41 27.796 117.998 28.432 118.742 28.888C119.486 29.344 120.35 29.572 121.334 29.572Z" fill="white"/>
<path d="M135.027 34V6.74805H140.427V34H135.027Z" fill="white"/>
<path d="M144.378 34V14.344H149.778V34H144.378ZM144.378 12.58V7.18005H149.778V12.58H144.378Z" fill="white"/>
<path d="M163.486 34.432C161.542 34.432 159.766 33.988 158.158 33.1C156.574 32.212 155.302 31 154.342 29.464C153.406 27.904 152.938 26.14 152.938 24.172C152.938 22.18 153.406 20.416 154.342 18.88C155.302 17.344 156.574 16.132 158.158 15.244C159.766 14.356 161.542 13.912 163.486 13.912C165.43 13.912 167.194 14.356 168.778 15.244C170.362 16.132 171.622 17.344 172.558 18.88C173.518 20.416 173.998 22.18 173.998 24.172C173.998 26.14 173.518 27.904 172.558 29.464C171.622 31 170.362 32.212 168.778 33.1C167.194 33.988 165.43 34.432 163.486 34.432ZM163.486 29.572C164.47 29.572 165.322 29.344 166.042 28.888C166.786 28.432 167.362 27.796 167.77 26.98C168.202 26.164 168.418 25.228 168.418 24.172C168.418 23.116 168.202 22.192 167.77 21.4C167.362 20.584 166.786 19.948 166.042 19.492C165.322 19.012 164.47 18.772 163.486 18.772C162.502 18.772 161.638 19.012 160.894 19.492C160.15 19.948 159.562 20.584 159.13 21.4C158.722 22.192 158.518 23.116 158.518 24.172C158.518 25.228 158.722 26.164 159.13 26.98C159.562 27.796 160.15 28.432 160.894 28.888C161.638 29.344 162.502 29.572 163.486 29.572Z" fill="white"/>
<path d="M18.0417 31.6923C15.8604 31.2908 13.9826 30.2824 12.3513 28.6511C10.1763 26.4224 9.12044 23.691 9.12044 20.3021C9.12044 16.9131 10.1763 14.1817 12.3323 11.972C13.9794 10.3249 15.8604 9.31328 18.0417 8.91179V0C13.3629 0.471038 9.28799 2.40894 5.90536 5.7884C1.98532 9.70845 0 14.5895 0 20.3021C0 26.0114 1.98848 30.8957 5.90536 34.8126C9.28483 38.192 13.3598 40.1331 18.0417 40.601V31.6923Z" fill="white"/>
<path d="M39.3934 18.6864L39.0583 16.8086H21.6299V25.5402H30.1402C29.6091 27.1525 28.7302 28.4644 27.4815 29.5203C25.885 30.8702 23.9566 31.6258 21.6299 31.8281V40.6798C26.9251 40.4079 31.3225 38.4637 34.7115 34.8851C38.0024 31.5815 39.6716 27.1461 39.6716 21.7055C39.6716 20.7381 39.5799 19.7233 39.3934 18.6864Z" fill="#E3FF04"/>
<path d="M30.7219 0H21.6299V8.89282H30.7219V0Z" fill="#E3FF04"/>
</svg>
